<?xml version="1.0" standalone="no"?><!DOCTYPE svg PUBLIC "-//W3C//DTD SVG 1.1//EN" "http://www.w3.org/Graphics/SVG/1.1/DTD/svg11.dtd"><svg t="1525314401610" class="icon" style="" viewBox="0 0 1024 1024" version="1.1" xmlns="http://www.w3.org/2000/svg" p-id="4533" xmlns:xlink="http://www.w3.org/1999/xlink" width="64" height="64"><defs><style type="text/css"></style></defs><path d="M0 993.28c0 16.896 17.93024 30.72 39.83872 30.72l132.80256 0c21.90848 0 39.83872-13.824 39.83872-30.72L212.48 440.32c0-16.896-17.93024-30.72-39.83872-30.72L39.83872 409.6C17.93024 409.6 0 423.424 0 440.32L0 993.28z" p-id="4534" fill="#cdcdcd"></path><path d="M405.76 993.28c0 16.896 17.92512 30.72 39.83872 30.72l132.80256 0c21.90848 0 39.83872-13.824 39.83872-30.72l0-368.64c0-16.896-17.93024-30.72-39.83872-30.72L445.59872 593.92c-21.90848 0-39.83872 13.824-39.83872 30.72L405.76 993.28z" p-id="4535" fill="#cdcdcd"></path><path d="M851.35872 409.6c-21.90848 0-39.83872 13.824-39.83872 30.72l0 552.96c0 16.896 17.93024 30.72 39.83872 30.72l132.80256 0c21.90848 0 39.83872-13.824 39.83872-30.72L1024 440.32c0-16.896-17.93024-30.72-39.83872-30.72L851.35872 409.6z" p-id="4536" fill="#cdcdcd"></path><path d="M509.44 5.12C345.90208 5.12 213.32992 137.69216 213.32992 301.23008s132.57216 296.11008 296.11008 296.11008 296.11008-132.57216 296.11008-296.11008S672.97792 5.12 509.44 5.12zM526.71488 479.30368l0 34.14016-37.01248 0 0-35.11296c-61.69088-7.1168-98.85696-42.28096-110.71488-105.55904l54.33344-15.26784c4.5056 49.78688 32.23552 74.09664 83.13856 72.95488 44.11392 0 66.16576-17.52576 66.16576-52.59776 5.64224-24.86272-19.8144-43.53024-76.3648-55.99232-81.44384-16.96768-119.93088-50.31936-115.39456-100.10624 3.12832-58.40896 34.67776-90.81856 98.83648-97.29536l0-32.97792 37.01248 0 0 32.80896c56.7552 5.69856 92.51328 37.62176 103.7568 95.77472l-54.6304 15.26784c-7.92064-41.84064-30.53056-62.19776-67.8656-61.0816-40.71936 1.14688-61.66016 16.96768-62.7712 47.50848-2.2784 20.36224 20.9152 36.21376 69.56544 47.50848 84.83328 16.96768 126.4384 53.74464 124.1856 110.29504C634.5728 441.75872 595.80416 474.9824 526.71488 479.30368z" p-id="4537" fill="#cdcdcd"></path></svg>