<?xml version="1.0" standalone="no"?><!DOCTYPE svg PUBLIC "-//W3C//DTD SVG 1.1//EN" "http://www.w3.org/Graphics/SVG/1.1/DTD/svg11.dtd"><svg t="1525224013563" class="icon" style="" viewBox="0 0 1024 1024" version="1.1" xmlns="http://www.w3.org/2000/svg" p-id="2605" data-spm-anchor-id="a313x.7781069.0.i0" xmlns:xlink="http://www.w3.org/1999/xlink" width="64" height="64"><defs><style type="text/css"></style></defs><path d="M512 1255.489906" p-id="2606" fill="#dbdbdb"></path><path d="M845.31681 221.767739c0-30.394563-24.561263-54.955827-54.955827-54.955827L599.397162 166.811913c-30.394563 0-54.955827 24.561263-54.955827 54.955827l0 190.963822c0 30.394563 24.561263 54.955827 54.955827 54.955827l190.963822 0c30.394563 0 54.955827-24.561263 54.955827-54.955827L845.31681 221.767739zM800.287827 412.731561c0 5.526284-4.40056 9.926844-9.926844 9.926844L599.397162 422.658405c-5.526284 0-9.926844-4.40056-9.926844-9.926844L589.470318 221.767739c0-5.526284 4.40056-9.926844 9.926844-9.926844l190.963822 0c5.526284 0 9.926844 4.40056 9.926844 9.926844L800.287827 412.731561z" p-id="2607" fill="#dbdbdb"></path><path d="M492.248651 562.555267c0-30.394563-24.561263-54.955827-54.955827-54.955827L246.329003 507.59944c-30.394563 0-54.955827 24.561263-54.955827 54.955827l0 190.963822c0 30.394563 24.561263 54.955827 54.955827 54.955827l190.963822 0c30.394563 0 54.955827-24.561263 54.955827-54.955827L492.248651 562.555267zM447.219668 753.519089c0 5.526284-4.40056 9.926844-9.926844 9.926844L246.329003 763.445932c-5.526284 0-9.926844-4.40056-9.926844-9.926844L236.402159 562.555267c0-5.526284 4.40056-9.926844 9.926844-9.926844l190.963822 0c5.526284 0 9.926844 4.40056 9.926844 9.926844L447.219668 753.519089z" p-id="2608" fill="#dbdbdb"></path><path d="M694.879073 512.71637c-82.996602 0-150.437737 67.441135-150.437737 150.437737s67.441135 150.437737 150.437737 150.437737 150.437737-67.441135 150.437737-150.437737S777.875675 512.71637 694.879073 512.71637zM694.879073 768.562862c-58.128323 0-105.408755-47.280432-105.408755-105.408755s47.280432-105.408755 105.408755-105.408755 105.408755 47.280432 105.408755 105.408755S753.007396 768.562862 694.879073 768.562862z" p-id="2609" fill="#dbdbdb"></path><path d="M341.810913 166.811913c-82.996602 0-150.437737 67.441135-150.437737 150.437737s67.441135 150.437737 150.437737 150.437737 150.437737-67.441135 150.437737-150.437737S424.807515 166.811913 341.810913 166.811913zM341.810913 422.658405c-58.128323 0-105.408755-47.280432-105.408755-105.408755s47.280432-105.408755 105.408755-105.408755 105.408755 47.280432 105.408755 105.408755S399.939236 422.658405 341.810913 422.658405z" p-id="2610" fill="#dbdbdb"></path></svg>