<?xml version="1.0" standalone="no"?><!DOCTYPE svg PUBLIC "-//W3C//DTD SVG 1.1//EN" "http://www.w3.org/Graphics/SVG/1.1/DTD/svg11.dtd"><svg t="1525314339273" class="icon" style="" viewBox="0 0 1024 1024" version="1.1" xmlns="http://www.w3.org/2000/svg" p-id="4341" xmlns:xlink="http://www.w3.org/1999/xlink" width="64" height="64"><defs><style type="text/css"></style></defs><path d="M916.224 647.872c-28.096-13.12-55.936-26.624-83.904-39.936-16-7.616-32.768-13.312-50.368-12.928-15.936 0.384-32 3.2-47.552 6.72-38.272 8.512-76.16 18.752-114.56 26.88-39.168 8.256-78.72 15.04-118.208 22.016-15.744 2.752-31.744 4.416-47.68 6.336-7.296 0.896-11.136 5.504-12.352 15.488-4.224 33.92 20.992 65.28 51.648 74.624 10.432 3.2 21.952 3.84 33.024 4.224 19.072 0.64 38.208 0.832 57.216 0 23.04-0.96 45.888-3.072 68.8-4.864 14.592-1.088 29.056-2.56 43.648-3.84l24.96-2.56c15.36-1.92 16.768 7.68 13.632 19.264-3.712 13.952-13.696 23.488-25.344 31.36-26.24 17.92-56 28.608-86.208 38.08-17.6 5.504-35.456 11.648-53.632 14.08-19.648 2.56-39.936 1.984-59.84 1.088-15.36-0.64-30.464-3.968-45.696-6.08a168.192 168.192 0 0 1-57.408-20.224c-23.104-12.416-46.72-24-70.976-34.24-30.72-12.992-62.016-24.832-93.44-36.096a144.32 144.32 0 0 0-51.328-10.048c-33.408 0.64-49.792 22.784-48.192 51.84 0.128 2.112 2.56 4.672 4.672 6.016 35.328 22.528 70.528 45.248 106.24 67.2 36.416 22.4 73.408 43.904 109.888 66.24 17.088 10.432 33.344 22.08 50.24 32.768 26.368 16.768 52.736 33.536 83.328 42.496 17.152 5.12 34.56 6.912 52.16 3.648 51.52-9.536 103.04-19.392 154.56-29.248 30.336-5.76 60.544-12.288 91.008-17.6 23.744-4.16 47.808-6.72 71.68-10.624 17.088-2.816 33.6-0.64 49.92 2.56v17.088a54.208 54.208 0 0 1-54.272 54.272H162.112a54.272 54.272 0 0 1-54.336-54.272V397.312l-25.984 18.24a52.096 52.096 0 0 1-72.32-12.48A51.84 51.84 0 0 1 22.4 330.88L481.344 9.6A52.096 52.096 0 0 1 512 0.192 52.096 52.096 0 0 1 542.72 9.6l458.816 321.28a51.84 51.84 0 0 1 13.056 72.192 52.096 52.096 0 0 1-72.32 12.48l-26.048-18.24v250.56z m-499.84-135.744c-6.72 1.088-12.224 6.4-12.16 12.096v49.152c0 6.4 7.232 12.096 14.976 12.16h118.016c7.68-0.128 14.912-5.76 15.04-12.224V524.16c0-6.4-7.296-12.16-14.976-12.16H419.2a9.344 9.344 0 0 0-2.816 0z m-188.608 0c-6.784 1.088-12.288 6.4-12.16 12.096v49.152c0 6.4 7.232 12.096 14.976 12.16h118.016c7.68-0.128 14.912-5.76 14.976-12.224V524.16c0-6.4-7.232-12.16-14.912-12.16H230.592a9.344 9.344 0 0 0-2.816 0z m188.608-121.28c-6.72 1.088-12.224 6.464-12.16 12.16v49.088c0 6.4 7.232 12.16 14.976 12.16h118.016c7.68-0.128 14.912-5.76 15.04-12.224v-49.088c0-6.4-7.296-12.16-14.976-12.16H419.2a9.344 9.344 0 0 0-2.816 0z m-188.608 0c-6.784 1.088-12.288 6.464-12.16 12.16v49.088c0 6.4 7.232 12.16 14.976 12.16h118.016c7.68-0.128 14.912-5.76 14.976-12.224v-49.088c0-6.4-7.232-12.16-14.912-12.16H230.592a9.344 9.344 0 0 0-2.816 0z m0-121.28c-6.784 1.088-12.288 6.464-12.16 12.16v49.088c0 6.464 7.232 12.16 14.976 12.16h118.016c7.68-0.128 14.912-5.76 14.976-12.16V281.6c0-6.4-7.232-12.096-14.912-12.096H230.592a9.344 9.344 0 0 0-2.816 0z" fill="#dbdbdb" p-id="4342"></path></svg>