<?xml version="1.0" standalone="no"?><!DOCTYPE svg PUBLIC "-//W3C//DTD SVG 1.1//EN" "http://www.w3.org/Graphics/SVG/1.1/DTD/svg11.dtd"><svg t="1525225553498" class="icon" style="" viewBox="0 0 1024 1024" version="1.1" xmlns="http://www.w3.org/2000/svg" p-id="4207" xmlns:xlink="http://www.w3.org/1999/xlink" width="64" height="64"><defs><style type="text/css"></style></defs><path d="M364.93 804.44c-33.409 0-60 26.591-60 60 0 32.727 27.273 60 60 60s59.318-27.273 60-60c0-15.682-6.136-30.682-17.045-42.273-11.591-11.591-26.591-17.727-42.955-17.727zM776.45 804.44c-33.409 0-60 26.591-60 60 0 32.727 27.273 60 60 60s60-27.273 60-60c0-33.409-26.591-60-60-60zM825.451 707.56h-477.44c-13.44 0-26.88-12.16-28.8-26.88l-50.56-346.88-28.16-161.28c-5.12-40.96-41.6-72.96-83.2-72.96h-37.12c-14.72 0-26.88 13.52-26.88 28.24s12.16 26.24 26.88 26.24h37.76c14.08 0 28.16 12.8 30.08 28.16l28.16 161.92 49.92 345.6c5.12 40.96 40.96 72.96 82.56 72.96h476.8c14.72 0 26.24-11.52 26.88-26.88 0-14.72-12.16-28.24-26.88-28.24z" fill="#dbdbdb" p-id="4208"></path><path d="M899.97 214.2c-14.72-16-34.56-24.96-56.32-24.96h-508.8c-14.72 0-26.88 11.52-26.88 26.24s12.16 28.24 26.88 28.24h509.44c6.4 0 12.16 1.92 16 7.04 6.4 7.04 7.6 15.92 6.32 27.44l-46.08 260.48c-1.28 14.72-15.36 24.88-30.72 24.88l-396.72 28.8c-15.36 1.28-26.24 15.44-24.96 30.16 0.64 13.44 12.16 24.32 26.24 24.32h1.92l396.8-28.8c40.32 0 76.8-32 81.92-71.04l45.44-261.12c3.84-26.88-3.2-52.48-20.48-71.68z" fill="#dbdbdb" p-id="4209"></path></svg>