<?xml version="1.0" standalone="no"?><!DOCTYPE svg PUBLIC "-//W3C//DTD SVG 1.1//EN" "http://www.w3.org/Graphics/SVG/1.1/DTD/svg11.dtd"><svg t="1525314036000" class="icon" style="" viewBox="0 0 1024 1024" version="1.1" xmlns="http://www.w3.org/2000/svg" p-id="3824" xmlns:xlink="http://www.w3.org/1999/xlink" width="64" height="64"><defs><style type="text/css"></style></defs><path d="M1024 572.8c0-9.6-3.2-16-6.4-19.2v-3.2c0-3.2-3.2-6.4-3.2-6.4-3.2-3.2-6.4-6.4-6.4-9.6l-19.2-16-140.8-121.6c-19.2-16-48-16-70.4 0l-140.8 121.6c-16-3.2-28.8-9.6-44.8-9.6 99.2-38.4 169.6-134.4 169.6-246.4 0-144-118.4-262.4-262.4-262.4-144 0-262.4 118.4-262.4 262.4 0 112 70.4 208 169.6 246.4C172.8 550.4 0 752 0 992c0 16 16 32 32 32s32-16 32-32c0-236.8 192-428.8 428.8-428.8 32 0 64 3.2 96 9.6v390.4c0 32 25.6 57.6 54.4 57.6h326.4c28.8 0 54.4-25.6 54.4-57.6v-384-6.4zM294.4 262.4C294.4 153.6 384 64 492.8 64c108.8 0 198.4 89.6 198.4 198.4s-89.6 198.4-198.4 198.4c-108.8 0-198.4-89.6-198.4-198.4zM960 960h-307.2V582.4l44.8-38.4 108.8-92.8 108.8 92.8 44.8 38.4V960z" p-id="3825" fill="#cdcdcd"></path><path d="M806.4 537.6c-28.8 0-51.2 9.6-70.4 25.6-16 12.8-28.8 32-35.2 54.4-3.2 9.6-6.4 19.2-6.4 32 0 60.8 51.2 112 112 112s112-51.2 112-112-51.2-112-112-112z m-44.8 118.4v-9.6c0-22.4 16-41.6 35.2-44.8 3.2 0 9.6-3.2 12.8-3.2 25.6 0 48 22.4 48 48v9.6c-3.2 22.4-22.4 38.4-44.8 38.4h-6.4c-25.6-3.2-41.6-16-44.8-38.4z" p-id="3826" fill="#cdcdcd"></path></svg>