<?xml version="1.0" standalone="no"?><!DOCTYPE svg PUBLIC "-//W3C//DTD SVG 1.1//EN" "http://www.w3.org/Graphics/SVG/1.1/DTD/svg11.dtd"><svg t="1525314278875" class="icon" style="" viewBox="0 0 1024 1024" version="1.1" xmlns="http://www.w3.org/2000/svg" p-id="4085" xmlns:xlink="http://www.w3.org/1999/xlink" width="64" height="64"><defs><style type="text/css"></style></defs><path d="M909.963636 437.992727L503.621818 139.636364 114.501818 437.527273l-28.392727-36.770909 403.549091-310.458182a23.272727 23.272727 0 0 1 27.927273 0l418.90909 310.458182z" fill="#cdcdcd" p-id="4086"></path><path d="M810.821818 938.821818H214.574545a63.767273 63.767273 0 0 1-64.232727-63.767273V354.676364h46.545455V875.054545a17.221818 17.221818 0 0 0 17.687272 16.756364h595.781819a17.221818 17.221818 0 0 0 17.687272-16.756364V354.676364h46.545455V875.054545a63.767273 63.767273 0 0 1-63.767273 63.767273z" fill="#cdcdcd" p-id="4087"></path><path d="M735.418182 633.949091h-107.52a46.545455 46.545455 0 0 1-46.545455-50.269091v-96.814545a46.545455 46.545455 0 0 1 46.545455-50.269091h107.52a46.545455 46.545455 0 0 1 46.545454 50.269091v96.814545a46.545455 46.545455 0 0 1-46.545454 50.269091z m-107.52-150.807273v100.538182l107.52 3.723636v-100.538181zM735.418182 843.403636h-107.52a46.545455 46.545455 0 0 1-46.545455-50.269091V698.181818a46.545455 46.545455 0 0 1 46.545455-50.269091h107.52a46.545455 46.545455 0 0 1 46.545454 50.269091v93.090909a46.545455 46.545455 0 0 1-46.545454 52.130909z m-107.52-150.807272V791.272727l107.52 3.723637V698.181818zM521.774545 845.730909h-107.054545a46.545455 46.545455 0 0 1-46.545455-50.269091V698.181818a46.545455 46.545455 0 0 1 46.545455-50.269091h107.52a46.545455 46.545455 0 0 1 46.545455 50.269091v96.814546a46.545455 46.545455 0 0 1-47.01091 50.734545z m-107.054545-150.807273v100.538182l107.52 3.723637V698.181818z" fill="#cdcdcd" p-id="4088"></path></svg>