<?xml version="1.0" standalone="no"?><!DOCTYPE svg PUBLIC "-//W3C//DTD SVG 1.1//EN" "http://www.w3.org/Graphics/SVG/1.1/DTD/svg11.dtd"><svg t="1525229366164" class="icon" style="" viewBox="0 0 1024 1024" version="1.1" xmlns="http://www.w3.org/2000/svg" p-id="5070" xmlns:xlink="http://www.w3.org/1999/xlink" width="64" height="64"><defs><style type="text/css"></style></defs><path d="M858.126525 769.136382 678.538139 591.761602c11.577137-24.299429 17.986367-51.467185 17.986367-79.979566 0-102.947673-83.135779-186.181353-186.182842-186.181353-17.124708 0-33.962878 2.302439-49.750069 6.698562l79.704492 79.408561c33.006047 33.295314 30.518288 88.971357-5.361321 124.754329-35.689266 35.58752-91.657198 38.080294-124.663246 5.361101l-79.506986-79.985706c-4.403467 15.880689-6.700884 32.533974-6.700884 49.944506 0 103.130845 83.429479 186.746218 186.279036 186.746218 28.323206 0 55.77759-6.502088 79.697329-18.176988l178.815758 177.76159c22.866714 22.3838 60.948568 21.044292 85.439335-3.832282C878.691729 829.987285 880.417094 791.520181 858.126525 769.136382L858.126525 769.136382zM809.900222 841.464687c-17.30891 0-31.946882-14.166651-31.946882-31.760354 0-17.034978 14.637972-31.000038 31.946882-31.000038 17.511533 0 31.577453 13.964036 31.577453 31.000038C841.478698 827.298036 827.412778 841.464687 809.900222 841.464687L809.900222 841.464687zM901.177758 429.118338l-18.184896 0-42.376846-0.38067-0.285514 0c-8.508116-0.76134-16.648851-3.820002-23.729396-8.413624-0.475857 0-0.67234-0.201591-0.957854-0.578168-15.024797-9.763364-25.068959-27.171849-24.783445-46.50415 0-6.121418 1.244391-11.661597 3.160099-17.410532 1.719225-6.121418 4.784152-12.048407 8.901082-17.021675l9.371822-9.573029 21.146466-20.85498 12.441867-12.632715c18.082561-23.334451 18.082561-56.827263-0.67234-80.360236l-36.355466-37.311791c-24.205253-18.551518-57.591986-19.134803-81.226211-1.143033l-13.209378 12.619412-29.466286 30.238698 0 0-0.386826 0c-16.070659 13.006222-38.258893 15.500019-56.634132 7.460925-6.319175-2.866281-11.953729-6.495948-17.50437-11.864212-8.711763-9.371438-14.066943-20.669762-15.595825-32.718169l0-13.202697 0-29.655414L594.830309 121.438816c-3.635956-29.65439-27.17501-53.002145-57.502955-56.44864l-51.85612 0c-29.756917 3.261277-53.771827 26.596751-57.984952 56.06797l0 18.176988 0 30.232558 0 12.054547 0 0 0 0.190335c-0.184203 1.529843-0.761371 3.25002-0.857566 4.594645l0 0.571005c-0.474834 1.529843-0.671316 3.063779-0.856542 4.402263-0.577168 0-0.577168 0.577145-0.577168 0.577145-0.571028 1.338485-0.861659 3.445472-1.62303 4.403287l0 0c-0.48302 1.714038-1.440874 3.058662-2.202245 4.581342l0 0.194428c-3.160099 6.510274-7.557426 12.050454-13.495915 16.839527-9.561142 8.229428-22.384717 13.202697-36.158983 13.202697-12.918747 0-24.973788-4.402263-34.257602-12.054547l-9.471087-9.56689-21.047201-20.665669-12.816412-13.012362c-23.539054-17.98563-56.925786-17.98563-80.370692 0.957815l-37.210985 36.736693c-18.762065 23.347754-19.047579 56.834426-1.15536 80.753185l12.822552 12.620435 30.041408 29.858028 0 0c0.577168 0.957815 1.047908 1.720178 1.625077 2.677992 0.380686 0.184195 0.767511 0.957815 1.535022 1.915629 0.380686 0.572028 0.761371 1.714038 1.332399 2.486634 0 0.184195 0.965017 1.143033 0.965017 1.720178 0.571028 0.76748 1.142057 2.100848 1.813373 3.057639 0 0.577145 0.190343 1.149173 0.480974 1.720178 0.572052 0.768503 0.762394 2.113127 1.625077 3.261277 0 0.37453 0.095171 0.956791 0.285514 1.527796 0.191366 1.720178 1.054049 3.065825 1.054049 4.77884l0 0c0.474834 1.732457 0.761371 3.248997 0.761371 4.981455l0 0c2.396681 16.451694-3.154982 33.675984-15.977534 46.307675l0 0c-9.084261 9.18008-20.760663 14.536065-32.815704 15.881712l-13.101926 0-29.667886 0-17.887102 0c-29.750777 4.206812-53.194659 27.929096-56.545101 57.398268l-0.190343 52.242851c3.064928 30.0412 26.407498 53.574173 56.070267 57.595766l18.266764 0 42.287815 0.572028c1.535022 0.184195 3.635956 0.184195 5.07683 0.76134l1.433711 0c1.338539 0.571005 2.10605 0.957815 3.635956 1.14201 22.865691 7.080256 39.414253 28.328185 39.414253 53.579289l0 0c0 12.815887-4.39835 25.258267-12.145096 34.831296l-9.282791 8.983605 0 0-21.337832 20.86112-12.721241 12.632715c-17.798071 23.918759-17.798071 57.207933 0.665176 80.556711l37.022689 37.305651c23.635248 18.754133 56.741584 18.945491 80.751377 0.76134l12.626069-12.619412 30.334085-29.66667 0 0c0-0.37453 0.284491-0.37453 0.671316-0.571005 1.142057-1.149173 2.387471-1.720178 3.25527-2.868327 1.047908-0.196475 1.243368-0.196475 2.004739-0.76748 0.577168-0.37453 1.536046-1.149173 2.297417-1.720178 1.054049-0.572028 2.392588-0.76748 3.445613-1.344624 0.671316-0.37453 1.148197-0.571005 1.338539-0.957815 1.624053-0.185218 2.678102-0.76134 4.783129-1.333368l0 0 0 0c1.81542-0.572028 3.057764-1.344624 4.397327-1.344624l0.48302 0c1.432687-0.38067 2.962593-0.571005 4.592786-0.957815l0.380686 0c1.338539 0 2.677079 0 3.832439-0.572028 15.500654-0.571005 31.185511 4.790096 42.669524 16.654308 9.567282 9.181103 14.540754 21.044292 16.16583 33.099862l-0.191366 13.006222 0 29.471219 0 17.980513c3.636979 30.0412 27.454384 53.579289 57.2113 56.637951l52.333 0c29.948283-3.057639 53.481196-26.406416 57.598126-55.680137l0-17.980513 0.475857-30.612205 0-12.060687 0 0c1.154337-10.900258 5.075807-19.896142 11.104351-27.935236 0.571028-0.963954 1.142057-1.534959 1.713085-2.106987 0.386826-0.191358 0.869846-1.333368 1.731505-1.720178 3.349418-3.635807 7.080546-6.888897 11.187242-9.757225l0 0c1.249508-0.196475 2.492876-1.14201 3.260387-1.726318 0.946597-0.576121 0.946597-0.576121 1.333423-0.576121l0 0c0.577168-0.185218 0.958877-0.185218 1.059165-0.185218 1.046885-0.76748 1.915708-0.76748 3.159076-1.344624l-50.0407-49.937342c-21.718517 6.318916-44.584208 9.376555-68.219456 9.376555-135.379747-0.190335-244.454331-109.824291-243.97131-244.527203 0-135.475508 110.025274-244.920152 245.214678-244.545622 135.000085 0.571005 243.97131 110.213147 243.774827 245.306962-0.089031 22.954805-3.533621 45.731554-9.657336 66.39006l50.417292 49.557696c2.588047-5.925966 6.69372-11.102872 11.286506-16.266475 5.177118-4.963035 12.061181-8.795317 18.368076-11.287067 4.695121-2.100848 9.574445-3.629667 14.263426-4.206812l13.489775 0 29.846971 0 17.708016 0c29.661745-4.016477 53.094371-27.554566 56.443789-57.208956l0-52.81181C953.89656 457.060737 930.64916 433.139931 901.177758 429.118338L901.177758 429.118338zM901.177758 429.118338" p-id="5071" fill="#dbdbdb"></path></svg>