<?xml version="1.0" standalone="no"?><!DOCTYPE svg PUBLIC "-//W3C//DTD SVG 1.1//EN" "http://www.w3.org/Graphics/SVG/1.1/DTD/svg11.dtd"><svg t="1525915419145" class="icon" style="" viewBox="0 0 1024 1024" version="1.1" xmlns="http://www.w3.org/2000/svg" p-id="654" xmlns:xlink="http://www.w3.org/1999/xlink" width="200" height="200"><defs><style type="text/css"></style></defs><path d="M247.4 530.8c0-98.9 80.1-179 179-179 3.4 0 13.4-0.1 15.2 0h238.5L564.7 467.2c-4.3 4.3-6.7 10.2-6.7 16.3 0 20.5 24.8 30.8 39.3 16.3L739.9 357c15.6-15.6 15.6-40.9 0-56.6L597.2 157.8c-14.5-14.5-39.3-4.2-39.3 16.3 0 6.1 2.4 12 6.7 16.3L680 305.8H421.2s-4.6 0.2-5.7 0.3c-119.2 5.6-214.2 104.1-214.2 224.7 0 2.3 0 4.7 0.1 7 0.4 12.5 10.5 22.4 23 22.4 13 0 23.4-10.7 23-23.6v-5.8z" fill="" p-id="655"></path><path d="M823.2 485.9c-0.4-12.5-10.5-22.4-23-22.4-13 0-23.4 10.7-23 23.6 0.1 1.9 0.1 3.8 0.1 5.8 0 98.9-80.1 179-179 179-3.4 0-13.4 0.1-15.2 0H344.6L460 556.4c4.3-4.3 6.7-10.2 6.7-16.3 0-20.5-24.8-30.8-39.3-16.3L284.8 666.6c-15.6 15.6-15.6 40.9 0 56.6l142.6 142.6c14.5 14.5 39.3 4.2 39.3-16.3 0-6.1-2.4-12-6.7-16.3L344.6 717.8h258.9s4.6-0.2 5.7-0.3c119.2-5.6 214.2-104.1 214.2-224.7-0.1-2.3-0.2-4.6-0.2-6.9z" fill="" p-id="656"></path></svg>