<?xml version="1.0" standalone="no"?><!DOCTYPE svg PUBLIC "-//W3C//DTD SVG 1.1//EN" "http://www.w3.org/Graphics/SVG/1.1/DTD/svg11.dtd"><svg t="1525914980226" class="icon" style="" viewBox="0 0 1024 1024" version="1.1" xmlns="http://www.w3.org/2000/svg" p-id="4316" xmlns:xlink="http://www.w3.org/1999/xlink" width="200" height="200"><defs><style type="text/css"></style></defs><path d="M516.701582 0.199111a0.853333 0.853333 0 0 0-0.995555 0l-29.838223 21.162667L34.340693 357.518222a84.821333 84.821333 0 0 0-17.066666 119.466667 0.881778 0.881778 0 0 0 1.194666 0.170667l58.624-43.690667a0.853333 0.853333 0 0 1 1.365334 0.682667v589.198222a0.853333 0.853333 0 0 0 0.853333 0.853333h84.992a0.853333 0.853333 0 0 0 0.853333-0.853333V368.184889a0.853333 0.853333 0 0 1 0.341334-0.682667l348.046222-259.726222a0.853333 0.853333 0 0 1 1.024 0l365.368889 274.801778a0.768 0.768 0 0 1 0.341333 0.682666v640a0.824889 0.824889 0 0 0 0.853333 0.853334h84.963556a0.824889 0.824889 0 0 0 0.853333-0.853334V447.374222l38.343111 29.610667a0.853333 0.853333 0 0 0 1.194667-0.170667 85.333333 85.333333 0 0 0-16.839111-119.722666z m-179.029333 507.420445H296.029582a44.174222 44.174222 0 0 0-44.202666 43.889777v41.358223a44.145778 44.145778 0 0 0 44.202666 43.861333h41.642667a44.145778 44.145778 0 0 0 44.174222-43.861333v-41.358223a44.174222 44.174222 0 0 0-44.174222-43.889777z m0 193.678222H296.029582a44.145778 44.145778 0 0 0-44.202666 43.861333v41.358222a44.174222 44.174222 0 0 0 44.202666 43.889778h41.642667a44.145778 44.145778 0 0 0 44.174222-43.889778V745.244444a44.145778 44.145778 0 0 0-44.174222-43.946666z m0 193.649778H296.029582a44.174222 44.174222 0 0 0-44.202666 43.889777v41.329778A44.174222 44.174222 0 0 0 296.029582 1024h41.642667a44.145778 44.145778 0 0 0 44.174222-43.889778v-41.329778a44.145778 44.145778 0 0 0-44.174222-43.832888z m216.689778 0h-41.642667a44.145778 44.145778 0 0 0-44.174222 43.889777v41.329778A44.145778 44.145778 0 0 0 512.71936 1024h41.642667a44.174222 44.174222 0 0 0 44.202666-43.889778v-41.329778a44.174222 44.174222 0 0 0-44.202666-43.832888z m200.675555-154.481778a0.853333 0.853333 0 0 1 0-0.995556 174.648889 174.648889 0 0 0 25.6-87.665778 166.855111 166.855111 0 1 0-166.855111 165.688889 159.089778 159.089778 0 0 0 88.462222-25.6c0.227556 0 0.369778-0.284444 0.568889 0l70.769778 70.286223a30.179556 30.179556 0 0 0 42.353778 0l9.614222-9.557334a29.667556 29.667556 0 0 0 0-42.069333z m-141.312 29.696a120.718222 120.718222 0 0 1-121.344-119.751111A122.936889 122.936889 0 0 1 614.60736 529.066667a120.718222 120.718222 0 0 1 120.576 120.490666 123.591111 123.591111 0 0 1-121.457778 120.604445z" fill="#666666" p-id="4317"></path></svg>