<?xml version="1.0" standalone="no"?><!DOCTYPE svg PUBLIC "-//W3C//DTD SVG 1.1//EN" "http://www.w3.org/Graphics/SVG/1.1/DTD/svg11.dtd"><svg t="1525915182465" class="icon" style="" viewBox="0 0 1024 1024" version="1.1" xmlns="http://www.w3.org/2000/svg" p-id="5040" xmlns:xlink="http://www.w3.org/1999/xlink" width="200" height="200"><defs><style type="text/css"></style></defs><path d="M458.112 674.976l-17.92 35.84-280.032-76.96v181.536l327.456 89.184v-295.424z m125.696 35.84l-17.632-35.84-29.408-66.08v296.064l327.456-89.568v-181.856l-241.6 66.656z m25.664-46.432l351.68-97.12-97.408-195.072-351.712 97.12z m-194.944 0l97.376-195.072-351.68-97.12-97.408 195.072z m483.904-331.84l101.728-116.384L648.448 119.04l-136.352 156.032 351.712 97.12z m-646.624 14.368l260.096-71.808-136.352-156.032L23.872 216.192l136.352 156.032z" p-id="5041"></path></svg>