<?xml version="1.0" standalone="no"?><!DOCTYPE svg PUBLIC "-//W3C//DTD SVG 1.1//EN" "http://www.w3.org/Graphics/SVG/1.1/DTD/svg11.dtd"><svg t="1525914911099" class="icon" style="" viewBox="0 0 1024 1024" version="1.1" xmlns="http://www.w3.org/2000/svg" p-id="2586" xmlns:xlink="http://www.w3.org/1999/xlink" width="200" height="200"><defs><style type="text/css"></style></defs><path d="M251.226277 380.066155c-14.843056 0-26.878161 12.127202-26.878161 27.04496 0 7.161097 2.808976 14.062274 7.849782 19.121499a26.861788 26.861788 0 0 0 19.028379 7.924483h459.252658c14.860453-0.036839 26.878161-12.128225 26.878161-27.045982 0-15.048741-12.036128-27.04496-26.878161-27.04496H251.226277z m227.841171 525.58132H139.083174c-7.40362 0-13.373589-6.175653-13.373589-13.540388V186.228425c0-7.458879 6.100952-13.522991 13.373589-13.522991h170.45723v54.017264c0 14.991436 11.997242 27.119661 26.784016 27.119661h289.056372c14.805194 0 26.78504-12.128225 26.78504-27.119661v-54.017264h170.456206c7.40362 0 13.373589 6.157233 13.373589 13.522991v278.582833c0 14.936177 12.035104 27.045983 26.916023 27.045983 14.843056 0 26.89658-12.108782 26.89658-27.045983V145.724942c0-14.954597-12.016685-27.119661-26.859741-27.11966H652.164808V91.64321c0-15.001669-11.998265-27.129894-26.785039-27.129894H336.32442c-14.806217 0-26.784016 12.146645-26.784016 27.129894v26.962072H98.7557a26.838252 26.838252 0 0 0-19.00996 7.960299c-5.040806 5.087878-7.849782 11.979846-7.849781 19.159361v786.894838c-0.01842 14.937201 12.016685 27.082822 26.859741 27.120684h380.310725c14.842033 0 26.89658-12.129248 26.89658-27.047006 0-14.95562-12.053524-27.045983-26.895557-27.045983z m-115.697045-773.650185a13.579273 13.579273 0 0 1 4.016477-9.523911 13.386892 13.386892 0 0 1 9.52391-3.869121h207.882608c7.494695 0 13.540388 6.099928 13.540388 13.393032v54.360072a13.393032 13.393032 0 0 1-4.019547 9.52391 13.30605 13.30605 0 0 1-9.521864 3.869121H376.911814c-7.477298 0-13.540388-6.100952-13.540388-13.393031v-54.360072zM417.052023 758.330268c14.862499 0 26.915-12.128225 26.914999-27.045983 0-14.954597-12.0525-27.063379-26.914999-27.063379H251.393075c-14.899338 0-27.04496 12.108782-27.044959 27.063379a27.117614 27.117614 0 0 0 7.941879 19.158339c5.078669 5.079692 11.960403 7.924483 19.10308 7.887644H417.052023z m63.912635-229.086535h-229.79364c-14.806217 0-26.821879 12.090363-26.821879 27.045983 0 15.030321 12.016685 27.04496 26.821879 27.044959h229.79364c14.786775 0 26.78504-12.089339 26.78504-27.044959 0-15.030321-11.979846-27.045983-26.78504-27.045983z m450.694749 181.171246H911.738705c-9.05933 0-18.694781-7.142677-21.446451-15.867386l-11.347443-27.882024c-4.315282-8.035-2.566452-19.902282 3.868098-26.374694l14.100136-14.155395c6.435573-6.491855 6.435573-17.056468 0-23.511483l-23.436782-23.512507a16.493649 16.493649 0 0 0-23.399943 0l-14.099113 14.135952c-6.398734 6.436596-18.246573 8.203846-26.282596 3.88754l-27.659966-11.456936c-8.667404-2.697435-15.791661-12.388145-15.791662-21.577434v-19.939121c0-9.133008-7.495718-16.628726-16.555047-16.628726h-33.052791c-9.097192 0-16.555048 7.496741-16.555047 16.628726v19.939121c0 9.227152-7.105838 18.899442-15.811104 21.614273l-27.715225 11.420097c-8.016581 4.316306-19.772322 2.549056-26.227338-3.88754l-14.117533-14.154371c-6.417153-6.472412-16.945951-6.472412-23.36208 0l-23.381523 23.473621c-6.455015 6.510274-6.455015 17.001209 0 23.511483l14.04283 14.174837c6.455015 6.472412 8.204869 18.339694 3.887541 26.412557l-11.419074 27.882024c-2.677992 8.723685-12.351306 15.867386-21.446451 15.867386h-19.848047c-9.114588 0-16.555048 7.457856-16.555048 16.628725v33.221636c0.019443 9.188266 7.440459 16.627702 16.555048 16.627703h19.848047c9.095145 0.038886 18.730597 7.181563 21.446451 15.885805l11.419074 27.846208c4.28049 8.05342 2.567475 19.995403-3.887541 26.430976l-14.079669 14.134929c-6.435573 6.510274-6.435573 17.020652 0 23.530926l23.418362 23.510459c6.455015 6.456039 16.907065 6.456039 23.36208 0l14.117533-14.154371c6.361895-6.436596 18.191314-8.184403 26.208918-3.850701l27.733645 11.457959c8.705266 2.697435 15.811104 12.405541 15.811104 21.556969v19.865443c0.036839 9.17087 7.421017 16.59291 16.555047 16.630772h33.052791c9.134031-0.037862 16.498766-7.479345 16.555047-16.630772v-19.865443c0-9.151427 7.124258-18.860557 15.791662-21.556969l27.697828-11.457959c8.05342-4.333702 19.883863-2.585895 26.318412 3.850701l14.007016 14.154371c6.455015 6.456039 16.907065 6.456039 23.381523 0l23.435759-23.510459c6.436596-6.491855 6.436596-17.057491 0-23.530926l-14.117533-14.134929c-6.39771-6.435573-8.147564-18.377556-3.86912-26.430976l11.364838-27.846208c2.752694-8.705266 12.426007-15.84692 21.465894-15.84692h19.865444c9.114588-0.038886 16.518209-7.478322 16.518208-16.629749v-33.258475c0.055259-9.17087-7.40362-16.628726-16.443507-16.628725z m-85.805248 31.807426a115.091248 115.091248 0 0 1-33.443693 81.136925c-21.409612 21.50171-50.426483 33.591049-80.709183 33.573653-30.281677 0.01842-59.33641-12.071943-80.727603-33.592072-21.428032-21.522176-33.462113-50.724265-33.462113-81.155345 0-40.996716 21.763676-78.886675 57.085136-99.402941a113.673969 113.673969 0 0 1 114.171296 0c35.340903 20.516266 57.085136 58.406225 57.085137 99.402941v0.036839z" p-id="2587"></path></svg>