<?xml version="1.0" standalone="no"?><!DOCTYPE svg PUBLIC "-//W3C//DTD SVG 1.1//EN" "http://www.w3.org/Graphics/SVG/1.1/DTD/svg11.dtd"><svg t="1525915628860" class="icon" style="" viewBox="0 0 1024 1024" version="1.1" xmlns="http://www.w3.org/2000/svg" p-id="1978" xmlns:xlink="http://www.w3.org/1999/xlink" width="200" height="200"><defs><style type="text/css"></style></defs><path d="M657.342972 657.325253h223.418182v86.884848c0 11.636364 6.593939 16.678788 11.636364 11.636364 8.274747-6.723232 109.252525-105.244444 115.846464-111.967677 4.913131-5.042424 4.913131-18.359596 0-23.40202-8.274747-8.40404-109.252525-105.244444-114.165656-110.286869-6.593939-6.723232-13.187879 1.680808-13.187879 11.636364v85.20404H657.342972c-13.187879 0-24.824242 11.636364-24.824242 25.082828 0 13.446465 11.507071 25.212121 24.824242 25.212122z m0 0" fill="#333333" p-id="1979"></path><path d="M780.947013 979.911111c-15.256566 0-28.70303-13.446465-28.703031-28.70303V736.064646c0-15.256566 13.446465-28.70303 28.703031-28.70303 16.161616 0 28.70303 12.670707 28.70303 28.70303v215.143435c0 15.256566-13.446465 28.70303-28.70303 28.70303z m-612.331314 0c-15.256566 0-28.70303-13.446465-28.70303-28.70303V466.876768H70.999538c-7.886869 0-16.549495-2.068687-23.272727-5.430303-20.945455-10.472727-34.909091-29.608081-38.529293-52.49293-5.171717-25.858586 4.913131-53.656566 27.539394-76.282828 1.034343-1.163636 2.585859-2.068687 3.878787-2.973737 1.034343-0.646465 2.19798-1.422222 2.715152-1.939394 0.129293-0.129293 0.387879-0.258586 0.517172-0.387879L419.443982 65.939394c17.19596-13.705051 36.331313-20.686869 56.888889-20.686869 20.945455 0 40.080808 7.111111 55.337374 20.686869l375.466667 261.30101c0.129293 0.129293 0.387879 0.258586 0.517171 0.387879 0.517172 0.517172 1.680808 1.292929 2.715152 1.939394 1.422222 0.905051 2.844444 1.810101 3.878788 2.973737 22.109091 22.109091 32.711111 49.777778 29.220202 76.024243-3.490909 23.014141-17.583838 42.149495-38.529293 52.622222-7.49899 3.749495-14.610101 5.430303-23.272728 5.430303h-70.593939v62.319192c0 15.256566-13.446465 28.70303-28.70303 28.70303s-28.444444-13.187879-28.444445-28.444444v-74.472728c0-25.341414 19.911111-45.252525 45.252526-45.252525h81.454545c3.361616-2.456566 5.947475-6.076768 7.369697-10.343434 1.034343-7.369697-3.620202-17.454545-12.024242-25.858586L500.639942 111.967677c-0.129293-0.129293-0.387879-0.258586-0.517172-0.387879-7.111111-7.111111-14.351515-10.343434-23.40202-10.472727-10.860606 1.810101-19.006061 5.30101-24.048485 10.472727-0.129293 0.129293-0.387879 0.258586-0.517172 0.387879l-373.527272 261.171717c-7.111111 8.662626-13.446465 17.713131-12.024243 26.246465v0.646464c0 3.490909 2.585859 6.852525 6.981818 9.309091h78.480808c25.341414 0 45.252525 19.911111 45.252526 45.252525v496.484849c0 15.385859-13.446465 28.832323-28.703031 28.832323z" fill="#333333" p-id="1980"></path><path d="M276.187417 875.70101h132.395959v100.20202H276.187417v-100.20202z m0-133.688889h132.395959v100.20202H276.187417v-100.20202z m198.593939 133.688889h132.39596v100.20202H474.781356v-100.20202z m0 0" fill="#333333" p-id="1981"></path></svg>