<?xml version="1.0" standalone="no"?><!DOCTYPE svg PUBLIC "-//W3C//DTD SVG 1.1//EN" "http://www.w3.org/Graphics/SVG/1.1/DTD/svg11.dtd"><svg t="1525915623433" class="icon" style="" viewBox="0 0 1024 1024" version="1.1" xmlns="http://www.w3.org/2000/svg" p-id="7854" xmlns:xlink="http://www.w3.org/1999/xlink" width="200" height="200"><defs><style type="text/css"></style></defs><path d="M176.36501333 328.192v592.96c0 28.672-58.176 28.608-58.176 0V365.184l-55.104 39.424c-23.552 16.768-57.152-31.936-33.92-48.576L482.41301333 34.304c30.272-22.656 49.088-22.912 81.408 1.28l449.344 320.448c23.36 16.576-6.528 65.28-30.016 48.576l-54.72-38.976v98.688c0 30.08-60.8 29.952-60.8 0V324.672L527.72501333 82.944c-3.968-3.008-7.68-3.008-11.584-0.256L176.36501333 328.192z" fill="#8a8a8a" p-id="7855"></path><path d="M263.91701333 447.296h80.064c8 0 14.464 6.528 14.464 14.528v80.192a14.592 14.592 0 0 1-14.464 14.528H263.91701333a14.528 14.528 0 0 1-14.464-14.528V461.824a14.528 14.528 0 0 1 14.464-14.528z m190.08 0h80.064c7.936 0 14.464 6.528 14.464 14.528v80.192a14.592 14.592 0 0 1-14.464 14.528H453.99701333a14.528 14.528 0 0 1-14.464-14.528V461.824a14.528 14.528 0 0 1 14.464-14.528z m-190.08 193.28h80.064c8 0 14.464 6.464 14.464 14.464v79.872c0 8.256-6.528 14.72-14.464 14.72H263.91701333a14.528 14.528 0 0 1-14.464-14.72v-79.872a14.272 14.272 0 0 1 14.464-14.464z m0 192.768h80.064c8 0 14.464 6.656 14.464 14.656v80a14.528 14.528 0 0 1-14.464 14.656H263.91701333a14.528 14.528 0 0 1-14.464-14.656v-79.872a14.592 14.592 0 0 1 14.464-14.784z m192.832-192.768h80.064c7.936 0 14.464 6.464 14.464 14.464v79.872c0 8.256-6.528 14.72-14.464 14.72H456.74901333a14.528 14.528 0 0 1-14.464-14.72v-79.872a14.272 14.272 0 0 1 14.464-14.464z m0 192.768h80.064c7.936 0 14.464 6.656 14.464 14.656v80a14.528 14.528 0 0 1-14.464 14.656H456.74901333a14.528 14.528 0 0 1-14.464-14.656v-79.872a14.592 14.592 0 0 1 14.464-14.784z m333.696-200.576V553.472c0-14.784-14.976-29.76-29.76-29.76-9.984 0-14.976 4.992-19.84 9.984l-137.536 149.632a45.696 45.696 0 0 0-14.72 34.752c0 14.72 9.856 24.768 19.84 34.624l137.344 152.384c5.12 4.992 10.112 9.92 19.968 9.92 14.912 0 24.832-9.92 24.832-24.768v-94.208c94.016-4.992 157.248 37.888 206.848 117.12 4.992 9.856 9.856 14.72 19.776 14.72s24.768-9.728 24.768-24.768c-5.056-44.352 1.024-255.552-251.52-270.336z m210.368 220.032c-52.224-61.824-124.864-98.624-205.76-98.688h-41.344V857.6l-113.28-129.728-9.344-9.472s0-4.608 4.608-9.344l116.544-127.104v86.528h14.464c171.136-0.128 219.84 108.288 234.112 184.32z" fill="#8a8a8a" p-id="7856"></path></svg>