<?xml version="1.0" standalone="no"?><!DOCTYPE svg PUBLIC "-//W3C//DTD SVG 1.1//EN" "http://www.w3.org/Graphics/SVG/1.1/DTD/svg11.dtd"><svg t="1525914866155" class="icon" style="" viewBox="0 0 1024 1024" version="1.1" xmlns="http://www.w3.org/2000/svg" p-id="1907" xmlns:xlink="http://www.w3.org/1999/xlink" width="200" height="200"><defs><style type="text/css"></style></defs><path d="M500.92 308.92L386 404.71l-98-98-150.63 150.66 45.25 45.26L288 397.25l94 94 164.36-136.89L608 416V256H448zM640 64H128a64.19 64.19 0 0 0-64 64v768a64.19 64.19 0 0 0 64 64h444a289.06 289.06 0 0 1-82.6-64H128.11l-0.11-0.11V128.11l0.11-0.11h511.78l0.11 0.11v295a288.9 288.9 0 0 1 64-7.11V128a64.19 64.19 0 0 0-64-64zM446 576H160v64h263.15A285.9 285.9 0 0 1 446 576zM160 768h263.15a288.91 288.91 0 0 1-7.15-64H160z" p-id="1908"></path><path d="M704 448c-141.38 0-256 114.62-256 256s114.62 256 256 256 256-114.62 256-256-114.62-256-256-256z m181 285.63L843.15 742a13.77 13.77 0 0 0-10.23 8.84q-2.08 5.72-4.64 11.2a13.78 13.78 0 0 0 1 13.49L852.92 811a13.71 13.71 0 0 1-1.71 17.3l-22.89 22.89a13.71 13.71 0 0 1-17.3 1.71l-35.49-23.66a13.78 13.78 0 0 0-13.49-1q-5.47 2.56-11.2 4.64a13.77 13.77 0 0 0-8.84 10.27L733.63 885a13.71 13.71 0 0 1-13.45 11h-32.37a13.71 13.71 0 0 1-13.45-11L666 843.15a13.77 13.77 0 0 0-8.84-10.23q-5.72-2.08-11.2-4.64a13.78 13.78 0 0 0-13.49 1L597 852.92a13.71 13.71 0 0 1-17.3-1.71l-22.89-22.89a13.71 13.71 0 0 1-1.71-17.3l23.66-35.49a13.78 13.78 0 0 0 1-13.49q-2.56-5.47-4.64-11.2a13.77 13.77 0 0 0-10.27-8.84L523 733.63a13.71 13.71 0 0 1-11-13.45v-32.37a13.71 13.71 0 0 1 11-13.45l41.85-8.36a13.77 13.77 0 0 0 10.23-8.84q2.08-5.72 4.64-11.2a13.78 13.78 0 0 0-1-13.49L555.08 597a13.71 13.71 0 0 1 1.71-17.3l22.89-22.89a13.71 13.71 0 0 1 17.3-1.71l35.49 23.66a13.78 13.78 0 0 0 13.49 1q5.47-2.56 11.2-4.64a13.77 13.77 0 0 0 8.84-10.27l8.37-41.85a13.71 13.71 0 0 1 13.45-11h32.37a13.71 13.71 0 0 1 13.45 11l8.36 41.85a13.77 13.77 0 0 0 8.84 10.23q5.72 2.08 11.2 4.64a13.78 13.78 0 0 0 13.49-1L811 555.08a13.71 13.71 0 0 1 17.3 1.71l22.89 22.89a13.71 13.71 0 0 1 1.71 17.3l-23.66 35.49a13.78 13.78 0 0 0-1 13.49q2.56 5.47 4.64 11.2a13.77 13.77 0 0 0 10.27 8.84l41.85 8.37a13.71 13.71 0 0 1 11 13.45v32.37a13.71 13.71 0 0 1-11 13.44zM704 621.71a82.29 82.29 0 1 0 58.19 24.1 81.75 81.75 0 0 0-58.19-24.1z" p-id="1909"></path></svg>