<?xml version="1.0" standalone="no"?><!DOCTYPE svg PUBLIC "-//W3C//DTD SVG 1.1//EN" "http://www.w3.org/Graphics/SVG/1.1/DTD/svg11.dtd"><svg t="1525914936685" class="icon" style="" viewBox="0 0 1024 1024" version="1.1" xmlns="http://www.w3.org/2000/svg" p-id="2953" xmlns:xlink="http://www.w3.org/1999/xlink" width="200" height="200"><defs><style type="text/css"></style></defs><path d="M924.8 1024H531.2c67.2-44.8 118.4-112 150.4-192h195.2c9.6 0 19.2-12.8 19.2-32 0-16-9.6-32-19.2-32h-176c3.2-19.2 6.4-41.6 6.4-64 0-19.2-3.2-44.8-6.4-64h166.4c16 0 32-12.8 32-32 0-16-12.8-32-32-32h-185.6c-16-48-44.8-92.8-73.6-124.8h252.8c19.2 0 41.6-12.8 41.6-32s-16-32-41.6-32H534.4c-60.8-41.6-134.4-64-211.2-64-70.4 0-137.6 19.2-192 54.4v-288C124.8 41.6 172.8 0 227.2 0h697.6C979.2 0 1024 41.6 1024 89.6v848c0 44.8-44.8 86.4-99.2 86.4zM614.4 192H278.4c-12.8 0-22.4 12.8-22.4 32s9.6 32 22.4 32h336c12.8 0 22.4-12.8 22.4-32s-9.6-32-22.4-32zM864 192h-64c-16 0-32 12.8-32 32s12.8 32 32 32h64c16 0 32-12.8 32-32s-16-32-32-32z m-220.8 512c0 176-144 320-320 320S0 880 0 704s144-320 320-320 323.2 140.8 323.2 320zM80 704c0 134.4 108.8 243.2 243.2 243.2s243.2-108.8 243.2-243.2-108.8-243.2-243.2-243.2-243.2 108.8-243.2 243.2z m240 0h96c16 0 32 12.8 32 32 0 16-12.8 32-32 32H288c-16 0-32-12.8-32-32v-131.2c0-16 12.8-32 32-32 16 0 32 12.8 32 32V704z" p-id="2954"></path></svg>