<?xml version="1.0" standalone="no"?><!DOCTYPE svg PUBLIC "-//W3C//DTD SVG 1.1//EN" "http://www.w3.org/Graphics/SVG/1.1/DTD/svg11.dtd"><svg t="1525915317633" class="icon" style="" viewBox="0 0 1177 1024" version="1.1" xmlns="http://www.w3.org/2000/svg" p-id="6590" xmlns:xlink="http://www.w3.org/1999/xlink" width="229.8828125" height="200"><defs><style type="text/css"></style></defs><path d="M697.439636 215.763098H328.892938c-11.66287 0-20.993166-9.330296-20.993166-20.993166s9.330296-20.993166 20.993166-20.993167h368.546698c11.66287 0 20.993166 9.330296 20.993166 20.993167s-9.330296 20.993166-20.993166 20.993166zM327.726651 548.154897c-4.665148 0-10.496583-2.332574-13.995444-5.831435-8.164009-8.164009-8.164009-20.993166 0-29.157175l184.273349-184.273349c8.164009-8.164009 20.993166-8.164009 29.157175 0L711.43508 513.166287c8.164009 8.164009 8.164009 20.993166 0 29.157175s-20.993166 8.164009-29.157176 0L512 372.045558 341.722096 541.157175c-3.498861 4.665148-9.330296 6.997722-13.995445 6.997722z" p-id="6591"></path><path d="M512 863.052392c-11.66287 0-20.993166-9.330296-20.993166-20.993166V342.888383c0-11.66287 9.330296-20.993166 20.993166-20.993167s20.993166 9.330296 20.993166 20.993167v500.33713c0 10.496583-9.330296 19.826879-20.993166 19.826879z" p-id="6592"></path><path d="M839.726651 1024H184.273349C82.806378 1024 0 941.193622 0 839.726651V184.273349C0 82.806378 82.806378 0 184.273349 0H839.726651c101.46697 0 184.273349 82.806378 184.273349 184.273349v384.874715h-40.820046v-384.874715c0-38.487472-15.161731-73.476082-41.986332-101.466971-26.824601-26.824601-62.979499-41.986333-101.466971-41.986332H184.273349c-38.487472 0-73.476082 15.161731-101.466971 41.986332-26.824601 26.824601-41.986333 62.979499-41.986332 101.466971V839.726651c0 38.487472 15.161731 73.476082 41.986332 101.466971 26.824601 26.824601 62.979499 41.986333 101.466971 41.986332H839.726651c13.995444 0 26.824601-2.332574 40.820046-5.831435l11.66287 39.653759c-17.494305 4.665148-34.98861 6.997722-52.482916 6.997722z" p-id="6593"></path><path d="M940.027335 1024c-130.624146 0-237.922551-106.132118-237.922551-237.922551S808.236902 548.154897 940.027335 548.154897 1177.949886 654.287016 1177.949886 786.077449s-107.298405 237.922551-237.922551 237.922551z m0-435.025057c-108.464692 0-197.102506 88.637813-197.102506 197.102506s88.637813 197.102506 197.102506 197.102505 197.102506-88.637813 197.102506-197.102505-88.637813-197.102506-197.102506-197.102506z" p-id="6594"></path><path d="M940.027335 706.769932c-44.318907 0-79.307517 34.98861-79.307517 79.307517s34.98861 79.307517 79.307517 79.307517 79.307517-34.98861 79.307517-79.307517-36.154897-79.307517-79.307517-79.307517z m0 115.462414c-19.826879 0-36.154897-16.328018-36.154898-36.154897 0-19.826879 16.328018-36.154897 36.154898-36.154898 19.826879 0 36.154897 16.328018 36.154897 36.154898 0 19.826879-16.328018 36.154897-36.154897 36.154897z" p-id="6595"></path><path d="M1047.32574 825.731207L979.681093 786.077449l67.644647-39.653759c9.330296-5.831435 12.829157-17.494305 6.997722-26.824601s-17.494305-12.829157-26.824601-6.997722l-67.644647 39.653758v-78.14123c0-10.496583-9.330296-19.826879-19.826879-19.826879s-19.826879 9.330296-19.826879 19.826879v78.14123L851.389522 712.601367c-9.330296-5.831435-22.159453-2.332574-26.824602 6.997722-5.831435 9.330296-2.332574 22.159453 6.997722 26.824601l67.644647 39.653759-67.644647 39.653758c-9.330296 5.831435-12.829157 17.494305-6.997722 26.824602 5.831435 9.330296 17.494305 12.829157 26.824602 6.997722l67.644647-39.653759V898.041002c0 10.496583 9.330296 19.826879 19.826879 19.82688s19.826879-9.330296 19.826879-19.82688v-78.14123l67.644647 39.653759c9.330296 5.831435 22.159453 2.332574 26.824601-6.997722s3.498861-22.159453-5.831435-26.824602z m-107.298405-3.498861c-19.826879 0-36.154897-16.328018-36.154898-36.154897 0-19.826879 16.328018-36.154897 36.154898-36.154898 19.826879 0 36.154897 16.328018 36.154897 36.154898 0 19.826879-16.328018 36.154897-36.154897 36.154897z" p-id="6596"></path></svg>