<?xml version="1.0" standalone="no"?><!DOCTYPE svg PUBLIC "-//W3C//DTD SVG 1.1//EN" "http://www.w3.org/Graphics/SVG/1.1/DTD/svg11.dtd"><svg t="1525309552748" class="icon" style="" viewBox="0 0 1024 1024" version="1.1" xmlns="http://www.w3.org/2000/svg" p-id="2566" xmlns:xlink="http://www.w3.org/1999/xlink" width="64" height="64"><defs><style type="text/css"></style></defs><path d="M148.178824 477.063529h193.957647a30.117647 30.117647 0 0 0 30.117647-30.117647V188.536471a30.117647 30.117647 0 0 0-30.117647-30.117647H148.178824a30.117647 30.117647 0 0 0-30.117648 30.117647v259.011764a30.117647 30.117647 0 0 0 30.117648 29.515294zM180.705882 218.654118h131.312942v198.77647H180.705882zM477.665882 227.689412h169.86353a30.117647 30.117647 0 0 0 0-60.235294H477.665882a30.117647 30.117647 0 0 0 0 60.235294zM477.665882 357.195294h169.86353a30.117647 30.117647 0 0 0 0-60.235294H477.665882a30.117647 30.117647 0 0 0 0 60.235294zM466.221176 546.334118H148.178824a30.117647 30.117647 0 0 0 0 60.235294h318.042352a30.117647 30.117647 0 0 0 0-60.235294zM466.221176 675.84H148.178824a30.117647 30.117647 0 0 0 0 60.235294h318.042352a30.117647 30.117647 0 0 0 0-60.235294zM466.221176 805.345882H148.178824a30.117647 30.117647 0 0 0 0 60.235294h318.042352a30.117647 30.117647 0 0 0 0-60.235294z" p-id="2567" fill="#cdcdcd"></path><path d="M1024 725.835294a244.555294 244.555294 0 0 0-228.291765-240.941176V30.117647a30.117647 30.117647 0 0 0-30.117647-30.117647H30.117647a30.117647 30.117647 0 0 0-30.117647 30.117647v963.764706a30.117647 30.117647 0 0 0 30.117647 30.117647h735.472941a30.117647 30.117647 0 0 0 30.117647-30.117647v-25.298824A244.555294 244.555294 0 0 0 1024 725.835294zM60.235294 60.235294h675.237647v425.86353A240.941176 240.941176 0 0 0 722.823529 963.764706H60.235294z m718.004706 849.92A183.717647 183.717647 0 1 1 963.764706 725.835294a184.922353 184.922353 0 0 1-185.524706 184.32z" p-id="2568" fill="#cdcdcd"></path><path d="M868.592941 695.717647h-60.235294v-60.235294a30.117647 30.117647 0 0 0-60.235294 0v60.235294h-60.235294a30.117647 30.117647 0 0 0 0 60.235294h60.235294v60.235294a30.117647 30.117647 0 0 0 60.235294 0v-60.235294h60.235294a30.117647 30.117647 0 0 0 0-60.235294z" p-id="2569" fill="#cdcdcd"></path></svg>