<?xml version="1.0" standalone="no"?><!DOCTYPE svg PUBLIC "-//W3C//DTD SVG 1.1//EN" "http://www.w3.org/Graphics/SVG/1.1/DTD/svg11.dtd"><svg t="1525252928269" class="icon" style="" viewBox="0 0 1025 1024" version="1.1" xmlns="http://www.w3.org/2000/svg" p-id="4893" xmlns:xlink="http://www.w3.org/1999/xlink" width="64.0625" height="64"><defs><style type="text/css"></style></defs><path d="M646.616615 173.607385l293.415385 293.415384-383.369846 383.369846-293.336616-293.415384 383.291077-383.369846m0-84.992a63.330462 63.330462 0 0 0-44.97723 18.668307L196.844308 512a63.645538 63.645538 0 0 0 0 89.954462l314.840615 314.840615a63.330462 63.330462 0 0 0 89.954462 0L1006.434462 512a63.645538 63.645538 0 0 0 0-89.954462L691.593846 107.204923a63.251692 63.251692 0 0 0-44.977231-18.589538z" fill="#cdcdcd" p-id="4894"></path><path d="M331.224615 887.650462c-24.260923 0-48.285538-9.058462-66.56-27.254154L28.435692 624.167385a93.262769 93.262769 0 0 1-27.411692-68.371693c0.551385-25.442462 10.791385-49.388308 28.987077-67.584l368.009846-367.931077c37.888-37.888 98.855385-38.596923 135.955692-1.575384l49.703385 49.624615a39.384615 39.384615 0 0 1-55.689846 55.689846l-49.703385-49.624615c-6.459077-6.222769-17.486769-5.592615-24.576 1.575385L85.700923 543.901538a19.298462 19.298462 0 0 0-5.828923 13.39077 14.808615 14.808615 0 0 0 4.253538 11.18523l236.150154 236.150154c6.459077 6.459077 17.486769 5.592615 24.576-1.575384l45.292308-45.292308a39.384615 39.384615 0 0 1 55.689846 55.689846l-45.292308 45.292308a97.910154 97.910154 0 0 1-69.316923 28.908308z" fill="#cdcdcd" p-id="4895"></path><path d="M646.616615 255.291077a31.507692 31.507692 0 0 0-22.44923 9.294769L354.304 534.449231a31.744 31.744 0 1 0 44.977231 44.977231L669.144615 309.563077a31.744 31.744 0 0 0-22.528-54.272zM556.662154 525.154462a31.507692 31.507692 0 0 0-22.449231 9.294769L444.258462 624.403692a31.744 31.744 0 1 0 44.898461 44.977231l89.954462-89.954461a31.744 31.744 0 0 0-22.449231-54.272zM736.571077 525.154462a31.507692 31.507692 0 0 0-22.449231 9.294769L534.212923 714.358154a31.744 31.744 0 1 0 44.977231 44.977231l179.908923-179.908923a31.744 31.744 0 0 0-22.528-54.272z" fill="#cdcdcd" p-id="4896"></path></svg>